<?xml version="1.0" encoding="UTF-8"?>
<!-- Generator: visioncortex VTracer 0.6.12 -->
<svg version="1.1" xmlns="http://www.w3.org/2000/svg" width="2000" height="2000">
<path d="M0 0 C660 0 1320 0 2000 0 C2000 660 2000 1320 2000 2000 C1340 2000 680 2000 0 2000 C0 1340 0 680 0 0 Z " fill="#14263F" transform="translate(0,0)"/>
<path d="M0 0 C0.33 0 0.66 0 1 0 C1 321.75 1 643.5 1 975 C-315.8 975 -632.6 975 -959 975 C-959 974.67 -959 974.34 -959 974 C-958.034 973.95 -957.068 973.9 -956.073 973.848 C-922.883 972.111 -922.883 972.111 -908.079 970.246 C-904.081 969.773 -900.071 969.429 -896.062 969.062 C-887.826 968.292 -879.599 967.454 -871.375 966.562 C-870.328 966.452 -869.282 966.342 -868.203 966.229 C-850.652 964.298 -833.284 961.058 -815.938 957.812 C-815.418 957.715 -815.418 957.715 -812.786 957.225 C-795.32 953.952 -778.024 950.2 -760.778 945.924 C-757.327 945.08 -753.87 944.269 -750.408 943.468 C-743.536 941.876 -736.735 940.171 -730 938.062 C-728.479 937.594 -726.959 937.127 -725.438 936.66 C-725.025 936.533 -725.025 936.533 -722.94 935.89 C-719.989 934.997 -717.031 934.133 -714.071 933.273 C-704.86 930.592 -695.725 927.723 -686.625 924.688 C-685.875 924.438 -685.125 924.188 -684.353 923.93 C-654.423 913.924 -624.778 902.974 -596 890 C-595.474 889.764 -595.474 889.764 -592.813 888.567 C-585.852 885.428 -578.921 882.227 -572 879 C-571.151 878.607 -570.302 878.214 -569.428 877.81 C-558.335 872.674 -547.456 867.217 -536.685 861.438 C-533.75 859.866 -530.808 858.306 -527.867 856.746 C-496.142 839.861 -465.765 821.103 -436 801 C-435.596 800.728 -435.596 800.728 -433.549 799.351 C-417.937 788.829 -402.843 777.576 -388 766 C-386.85 765.109 -385.701 764.219 -384.551 763.328 C-378.119 758.328 -371.812 753.213 -365.62 747.919 C-362.401 745.169 -359.138 742.495 -355.812 739.875 C-351.566 736.512 -347.564 732.935 -343.566 729.281 C-340.943 726.949 -338.242 724.753 -335.5 722.562 C-330.788 718.754 -326.544 714.647 -322.312 710.316 C-320.373 708.373 -318.41 706.58 -316.312 704.812 C-311.435 700.651 -307.008 696.035 -302.503 691.481 C-299.302 688.258 -296.103 685.114 -292.625 682.188 C-288.924 679.056 -285.823 675.515 -282.625 671.879 C-279.481 668.431 -276.193 665.154 -272.875 661.875 C-268.7 657.74 -264.626 653.598 -260.828 649.109 C-258.838 646.814 -256.778 644.597 -254.704 642.377 C-249.708 637.029 -244.93 631.587 -240.344 625.879 C-237.621 622.534 -234.817 619.266 -232 616 C-206.816 586.734 -184.201 555.235 -163 523 C-162.751 522.625 -162.751 522.625 -161.494 520.725 C-141.303 490.233 -123.488 458.375 -106.916 425.796 C-106.021 424.041 -105.12 422.288 -104.219 420.536 C-84.419 382.031 -68.37 342.033 -54.113 301.178 C-53.016 298.045 -51.903 294.919 -50.785 291.793 C-46.927 280.945 -43.463 270.09 -40.525 258.958 C-39.749 256.063 -38.904 253.189 -38.062 250.312 C-35.468 241.278 -33.148 232.169 -30.807 223.066 C-30.261 220.993 -29.697 218.925 -29.115 216.862 C-25.929 205.433 -23.574 193.85 -21.218 182.225 C-20.509 178.731 -19.788 175.24 -19.066 171.748 C-16.094 157.233 -13.584 142.697 -11.448 128.036 C-10.963 124.752 -10.459 121.471 -9.951 118.191 C-8.878 111.242 -7.914 104.284 -7 97.312 C-6.913 96.651 -6.826 95.989 -6.737 95.308 C-5.104 82.761 -4.013 70.205 -3.234 57.576 C-3 55 -3 55 -2.509 52.383 C-1.774 47.501 -1.648 42.625 -1.465 37.695 C-1.422 36.616 -1.379 35.537 -1.335 34.425 C-1.199 30.992 -1.068 27.559 -0.938 24.125 C-0.846 21.792 -0.754 19.458 -0.662 17.125 C-0.437 11.417 -0.217 5.708 0 0 Z " fill="#172E4A" transform="translate(1999,1025)"/>
<path d="M0 0 C321.75 0 643.5 0 975 0 C975 318.45 975 636.9 975 965 C974.67 965 974.34 965 974 965 C973.987 964.675 973.987 964.675 973.924 963.031 C973.807 960.042 973.685 957.052 973.562 954.062 C973.523 953.041 973.484 952.019 973.443 950.967 C973.226 945.744 972.875 940.596 972.248 935.408 C971.952 932.534 971.792 929.666 971.641 926.781 C968.363 864.419 958.662 799.471 940.129 739.738 C939.109 736.36 938.203 732.979 937.336 729.56 C917.358 650.846 883.397 574.206 843 504 C842.435 503.014 841.87 502.027 841.289 501.011 C824.322 471.407 805.78 442.597 785.544 415.114 C783.934 412.91 782.349 410.69 780.77 408.465 C774.505 399.656 768.002 391.14 761.121 382.805 C758.158 379.213 755.291 375.554 752.438 371.875 C748.221 366.46 743.83 361.222 739.335 356.036 C736.358 352.6 733.464 349.116 730.625 345.562 C725.777 339.583 720.498 334.033 715.219 328.438 C712.873 325.947 710.591 323.42 708.375 320.812 C704.929 316.798 701.156 313.13 697.395 309.415 C694.714 306.753 692.125 304.078 689.688 301.188 C682.189 292.396 673.714 284.117 664.887 276.668 C662.485 274.545 660.253 272.28 658 270 C654.51 266.472 650.954 263.126 647.184 259.902 C644.992 257.993 642.857 256.03 640.727 254.053 C635.597 249.294 630.356 244.76 624.902 240.371 C621.61 237.682 618.4 234.908 615.188 232.125 C609.44 227.163 603.548 222.428 597.551 217.773 C595.151 215.909 592.776 214.018 590.418 212.102 C581.576 204.917 572.488 198.157 563.198 191.563 C561.171 190.121 559.151 188.67 557.133 187.215 C516.167 157.82 472.846 131.999 428 109 C426.865 108.416 425.73 107.831 424.561 107.229 C406.552 97.97 388.297 89.48 369.662 81.558 C366.338 80.144 363.02 78.718 359.703 77.289 C334.463 66.506 308.52 57.678 282.458 49.129 C278.743 47.909 275.034 46.676 271.331 45.421 C263.051 42.618 254.802 39.982 246.312 37.875 C244.338 37.373 242.364 36.87 240.391 36.367 C239.461 36.132 238.531 35.897 237.572 35.655 C234.226 34.803 230.895 33.904 227.562 33 C225.731 32.514 223.899 32.028 222.067 31.545 C220.599 31.158 219.131 30.768 217.664 30.377 C175.948 19.321 133.167 11.987 90.312 7.125 C89.401 7.021 88.49 6.918 87.551 6.811 C77.499 5.681 67.475 4.75 57.372 4.242 C54.189 4.014 51.139 3.559 48 3 C32.064 1.606 15.984 1.471 0 1 C0 0.67 0 0.34 0 0 Z " fill="#172E4A" transform="translate(1025,0)"/>
<path d="M0 0 C0.33 0 0.66 0 1 0 C1.05 0.95 1.1 1.901 1.152 2.88 C2.095 20.623 3.059 38.332 5 56 C5.11 57.019 5.219 58.038 5.332 59.088 C6.067 65.92 6.828 72.748 7.609 79.575 C7.868 81.844 8.125 84.113 8.379 86.382 C9.642 97.616 10.971 108.752 13.195 119.84 C14.007 123.921 14.669 128.021 15.33 132.129 C20.454 163.921 27.061 195.624 36.262 226.498 C37.037 229.124 37.787 231.756 38.531 234.391 C38.659 234.844 38.659 234.844 39.308 237.14 C39.784 238.826 40.259 240.512 40.733 242.198 C56.396 297.328 77.768 350.594 103 402 C103.626 403.278 104.251 404.557 104.876 405.835 C113.39 423.213 122.241 440.282 132 457 C132.679 458.173 133.358 459.347 134.037 460.521 C141.861 474.059 149.695 487.575 158.386 500.582 C159.987 502.98 161.578 505.385 163.168 507.791 C171.241 520.007 179.334 532.193 188 544 C188.898 545.235 189.795 546.471 190.691 547.707 C196.658 555.911 202.762 564 209 572 C209.449 572.576 209.898 573.153 210.36 573.747 C215.766 580.682 221.228 587.565 226.82 594.352 C228.302 596.152 229.776 597.96 231.242 599.773 C235.645 605.213 240.172 610.493 244.883 615.668 C246.781 617.758 248.647 619.87 250.5 622 C253.856 625.85 257.266 629.649 260.691 633.438 C262.186 635.097 263.674 636.763 265.152 638.438 C269.827 643.713 274.689 648.731 279.701 653.681 C282.391 656.351 284.986 659.048 287.438 661.938 C294.315 669.995 302.038 677.478 310.109 684.328 C312.336 686.298 314.412 688.384 316.5 690.5 C319.81 693.849 323.207 696.999 326.781 700.062 C328.984 701.986 331.133 703.961 333.277 705.95 C338.487 710.784 343.823 715.371 349.363 719.828 C351.924 721.938 354.371 724.129 356.812 726.375 C362.375 731.437 368.272 736.016 374.216 740.615 C376.456 742.354 378.679 744.114 380.902 745.875 C395.432 757.361 410.095 768.582 425.465 778.926 C429.105 781.378 432.687 783.9 436.252 786.46 C445.998 793.45 456.055 799.9 466.221 806.261 C468.905 807.941 471.584 809.63 474.262 811.32 C486.022 818.708 498.004 825.627 510.132 832.388 C512.915 833.952 515.68 835.543 518.441 837.145 C545.389 852.727 573.482 865.772 602.021 878.14 C604.901 879.391 607.774 880.658 610.648 881.922 C652.893 900.321 697.212 916.098 742 927 C742.522 927.128 742.522 927.128 745.161 927.774 C750.487 929.073 755.819 930.349 761.156 931.605 C764.709 932.445 768.25 933.312 771.781 934.238 C825.868 948.424 883.239 956.145 939 959 C939.53 959.027 939.53 959.027 942.214 959.167 C948.475 959.483 954.736 959.759 961 960 C961 960.33 961 960.66 961 961 C643.87 961 326.74 961 0 961 C0 643.87 0 326.74 0 0 Z " fill="#172E4A" transform="translate(0,1039)"/>
<path d="M0 0 C317.13 0 634.26 0 961 0 C961 0.33 961 0.66 961 1 C946.982 2.031 932.986 3.023 918.938 3.5 C912.23 3.739 905.742 4.098 899.148 5.443 C895.374 6.111 891.59 6.521 887.781 6.918 C878.458 7.924 869.166 9.111 859.875 10.375 C859.073 10.484 858.27 10.593 857.444 10.705 C826.547 14.915 795.99 20.485 765.788 28.293 C761.248 29.444 756.686 30.498 752.125 31.562 C742.673 33.795 733.326 36.29 724 39 C722.98 39.293 721.959 39.587 720.908 39.889 C668.582 54.984 618.261 74.825 569 98 C567.99 98.473 566.981 98.946 565.94 99.434 C552.772 105.617 539.78 112.05 527 119 C525.984 119.552 524.968 120.103 523.922 120.672 C508.005 129.347 492.382 138.409 477 148 C476.16 148.522 475.32 149.044 474.455 149.582 C462.815 156.824 451.352 164.315 440 172 C439.324 172.457 438.647 172.915 437.951 173.386 C419.848 185.654 402.313 198.645 385 212 C384.314 212.529 383.627 213.058 382.92 213.603 C375.481 219.35 368.227 225.278 361.082 231.387 C358.264 233.791 355.388 236.118 352.5 238.438 C347.117 242.815 342.057 247.496 336.988 252.227 C334.696 254.364 332.372 256.452 330 258.5 C321.176 266.159 312.741 274.183 304.529 282.49 C301.153 285.892 297.676 289.09 294.027 292.199 C287.435 298.055 281.33 304.47 275.609 311.172 C273.974 313.029 272.265 314.766 270.5 316.5 C267.529 319.425 264.793 322.486 262.074 325.645 C259.986 328.016 257.845 330.328 255.688 332.638 C250.717 337.963 245.965 343.381 241.402 349.066 C238.55 352.549 235.592 355.928 232.625 359.312 C227.015 365.741 221.685 372.339 216.476 379.094 C214.881 381.153 213.272 383.2 211.66 385.246 C204.047 394.931 196.696 404.771 189.557 414.811 C188.047 416.934 186.53 419.053 185.012 421.172 C158.274 458.625 134.097 498.107 113.078 539.039 C111.25 542.597 109.4 546.137 107.484 549.648 C99.472 564.376 92.687 579.678 85.891 594.994 C85.056 596.874 84.219 598.753 83.381 600.631 C71.537 627.31 61.403 654.649 51.938 682.25 C51.672 683.023 51.406 683.797 51.132 684.593 C46.005 699.55 41.551 714.654 37.5 729.938 C34.088 742.758 34.088 742.758 32.688 747.543 C28.512 761.835 25.516 776.403 22.433 790.96 C22.013 792.939 21.59 794.918 21.166 796.896 C14.692 827.17 9.867 857.603 6.5 888.375 C6.394 889.336 6.288 890.297 6.179 891.287 C3.681 914.139 2.255 937.05 1 960 C0.67 960 0.34 960 0 960 C0 643.2 0 326.4 0 0 Z " fill="#172E4A" transform="translate(0,0)"/>
<path d="M0 0 C35.97 0 71.94 0 109 0 C114.61 9.24 120.22 18.48 126 28 C134 41 134 41 137.969 47.438 C142.537 54.861 147.056 62.315 151.573 69.771 C156.682 78.201 161.825 86.61 167 95 C172.9 104.565 178.749 114.159 184.573 123.771 C189.682 132.201 194.825 140.61 200 149 C206.72 159.895 213.374 170.829 220.011 181.775 C225.318 190.53 230.653 199.269 236 208 C244.988 193.307 253.884 178.57 262.556 163.688 C267.815 154.669 273.18 145.721 278.625 136.812 C284.044 127.946 289.34 119.021 294.5 110 C299.66 100.979 304.956 92.054 310.375 83.188 C316.223 73.618 321.973 63.999 327.625 54.312 C343.68 26.804 343.68 26.804 349.126 18.267 C350.529 15.82 351.494 13.791 352.447 11.193 C354.239 6.796 356.191 2.961 360 0 C367.767 -2.768 376.625 -1.738 384.723 -1.465 C387.154 -1.437 389.584 -1.416 392.015 -1.401 C398.395 -1.343 404.769 -1.196 411.146 -1.03 C417.661 -0.876 424.177 -0.808 430.693 -0.732 C443.464 -0.572 456.232 -0.319 469 0 C469.19 17.896 469.352 35.791 469.5 53.688 C469.506 54.404 469.512 55.121 469.518 55.86 C470.113 127.905 470.085 199.95 470.063 271.997 C470.062 274.194 470.062 276.391 470.061 278.589 C470.058 288.747 470.055 298.905 470.051 309.063 C470.051 309.702 470.051 309.702 470.049 312.936 C470.039 339.291 470.018 365.645 470 392 C430.4 392 390.8 392 350 392 C349.34 333.59 348.68 275.18 348 215 C343.38 222.92 338.76 230.84 334 239 C331.381 243.441 328.76 247.881 326.125 252.312 C325.117 254.01 324.11 255.708 323.102 257.406 C322.079 259.13 321.056 260.853 320.032 262.577 C316.685 268.216 313.343 273.858 310 279.5 C308.667 281.75 307.333 284 306 286.25 C305.34 287.364 304.68 288.477 304 289.625 C302 293 300 296.375 298 299.75 C297.339 300.865 296.678 301.98 295.998 303.129 C294.672 305.365 293.347 307.602 292.022 309.838 C288.929 315.057 285.836 320.277 282.744 325.498 C281.301 327.934 279.858 330.37 278.416 332.806 C277.411 334.502 276.407 336.198 275.402 337.895 C274.782 338.941 274.162 339.988 273.523 341.066 C272.986 341.973 272.449 342.88 271.896 343.815 C271.583 344.34 271.583 344.34 270 347 C269.818 347.417 269.818 347.417 268.9 349.529 C266.966 353.543 265.577 356.388 261.297 358.049 C257.861 358.595 254.549 358.801 251.07 358.891 C249.811 358.949 248.552 359.007 247.254 359.066 C243.208 359.208 239.173 359.248 235.125 359.25 C234.444 359.255 233.763 359.26 233.062 359.265 C205.639 359.431 205.639 359.431 198.07 352.016 C194.341 346.648 192.206 340.782 190.26 334.574 C188.228 328.811 184.887 324.046 181.5 319 C180.253 317.025 179.013 315.046 177.781 313.062 C177.472 312.568 177.472 312.568 175.906 310.062 C171.902 303.63 167.945 297.168 163.98 290.711 C159.52 283.453 155.024 276.219 150.5 269 C145.11 260.397 139.758 251.771 134.438 243.125 C134.11 242.593 134.11 242.593 132.453 239.902 C128.594 233.625 124.792 227.32 121 221 C120.67 277.43 120.34 333.86 120 392 C80.4 392 40.8 392 0 392 C0 262.64 0 133.28 0 0 Z " fill="#FED33B" transform="translate(1337,808)"/>
<path d="M0 0 C1.343 -0.001 2.687 -0.002 4.03 -0.003 C6.842 -0.004 9.653 -0.002 12.464 0.002 C15.964 0.008 19.464 0.005 22.963 -0.001 C85.294 -0.089 85.294 -0.089 100.648 2.613 C104.416 3.212 108.151 3.47 111.956 3.727 C175.169 8.022 239.633 19.443 300.158 38.292 C303.02 39.164 305.89 40.006 308.762 40.843 C350.873 53.13 391.845 68.306 431.918 86.133 C433.036 86.628 434.155 87.123 435.307 87.633 C463.464 100.157 491.466 113.804 518.033 129.44 C520.715 131.014 523.406 132.569 526.102 134.12 C541.103 142.751 555.81 151.708 570.208 161.324 C572.936 163.145 575.672 164.953 578.41 166.758 C589.392 174.014 600.243 181.431 610.918 189.133 C611.301 189.409 611.301 189.409 613.238 190.804 C623.112 197.941 632.742 205.296 642.145 213.043 C645.75 216.011 649.419 218.891 653.105 221.758 C659.293 226.586 665.302 231.6 671.257 236.71 C672.974 238.181 674.697 239.644 676.422 241.105 C683.569 247.177 690.558 253.383 697.433 259.761 C698.965 261.176 700.507 262.582 702.051 263.984 C707.133 268.605 712.121 273.28 716.935 278.182 C718.781 279.998 720.679 281.69 722.648 283.371 C726.938 287.1 730.974 291.041 734.98 295.07 C735.649 295.735 736.317 296.399 737.006 297.084 C740.927 301.012 744.638 305.059 748.263 309.26 C750.694 312.011 753.291 314.571 755.918 317.133 C759.826 320.993 763.59 324.9 767.152 329.086 C769.312 331.59 771.553 334.013 773.793 336.445 C777.863 340.908 781.72 345.495 785.512 350.195 C788.216 353.496 790.999 356.72 793.793 359.945 C798.751 365.688 803.482 371.575 808.133 377.566 C810.533 380.656 812.986 383.7 815.449 386.74 C820.644 393.162 825.583 399.704 830.328 406.465 C832.097 408.986 833.898 411.479 835.727 413.957 C850.722 434.333 864.672 455.583 877.918 477.133 C878.304 477.76 878.69 478.388 879.088 479.035 C890.716 498.005 901.452 517.503 911.918 537.133 C912.187 537.636 912.187 537.636 913.547 540.18 C922.28 556.559 930.307 573.205 937.918 590.133 C938.181 590.716 938.181 590.716 939.511 593.665 C952.314 622.21 963.429 651.409 973.543 681.008 C973.831 681.849 974.119 682.691 974.416 683.558 C978.207 694.671 981.703 705.841 984.918 717.133 C985.236 718.244 985.554 719.354 985.881 720.499 C987.653 726.728 989.385 732.969 991.11 739.211 C991.6 740.984 992.093 742.756 992.589 744.527 C1003.236 782.559 1010.769 821.998 1015.918 861.133 C1015.967 861.503 1015.967 861.503 1016.217 863.379 C1019.162 885.528 1021.647 907.589 1022.7 929.916 C1022.87 932.424 1023.111 934.884 1023.406 937.378 C1023.979 942.387 1024.256 947.387 1024.469 952.422 C1024.49 952.917 1024.49 952.917 1024.596 955.42 C1025.087 968.113 1025.115 980.807 1025.105 993.508 C1025.106 994.799 1025.106 996.09 1025.106 997.42 C1025.094 1015.65 1024.794 1033.855 1024.043 1052.07 C1024.004 1053.048 1023.965 1054.026 1023.924 1055.034 C1023.37 1068.453 1022.318 1081.777 1020.918 1095.133 C1020.834 1095.944 1020.75 1096.755 1020.664 1097.591 C1020.178 1102.296 1019.678 1106.999 1019.168 1111.701 C1018.916 1114.03 1018.667 1116.359 1018.418 1118.688 C1017.116 1130.79 1015.776 1142.901 1013.605 1154.883 C1013.543 1155.228 1013.543 1155.228 1013.227 1156.972 C1012.947 1158.515 1012.665 1160.057 1012.382 1161.599 C1011.879 1164.346 1011.387 1167.095 1010.895 1169.844 C1004.044 1207.794 995.8 1245.121 984.918 1282.133 C984.693 1282.9 984.468 1283.668 984.237 1284.458 C980.423 1297.452 976.297 1310.319 971.918 1323.133 C971.757 1323.605 971.757 1323.605 970.941 1325.995 C957.182 1366.209 940.717 1405.032 921.918 1443.133 C921.329 1444.336 920.74 1445.539 920.152 1446.743 C912.73 1461.924 904.939 1476.813 896.471 1491.438 C894.951 1494.076 893.454 1496.727 891.965 1499.383 C865.854 1545.848 834.894 1590.079 800.918 1631.133 C799.48 1632.903 798.043 1634.674 796.605 1636.445 C792.166 1641.871 787.616 1647.195 783.039 1652.504 C780.936 1654.944 778.846 1657.395 776.766 1659.855 C771.922 1665.574 767.07 1671.149 761.684 1676.371 C759.972 1678.079 758.415 1679.848 756.855 1681.695 C752.642 1686.609 747.993 1691.085 743.395 1695.634 C740.215 1698.792 737.109 1701.943 734.23 1705.383 C731.04 1709.158 727.418 1712.41 723.75 1715.707 C719.76 1719.311 715.945 1723.057 712.168 1726.883 C708.253 1730.839 704.31 1734.666 700.062 1738.27 C697.756 1740.274 695.525 1742.346 693.292 1744.432 C687.838 1749.528 682.277 1754.387 676.453 1759.062 C674.103 1760.982 671.849 1762.966 669.605 1765.008 C665.324 1768.861 660.829 1772.391 656.284 1775.923 C652.408 1778.941 648.612 1782.03 644.855 1785.195 C633.664 1794.573 621.899 1803.12 610.033 1811.615 C608.183 1812.943 606.34 1814.279 604.5 1815.621 C593.208 1823.804 581.558 1831.457 569.918 1839.133 C569.119 1839.661 568.32 1840.189 567.497 1840.733 C556.17 1848.203 544.623 1855.273 532.918 1862.133 C531.877 1862.743 530.837 1863.353 529.765 1863.981 C512.107 1874.292 494.159 1883.898 475.918 1893.133 C474.441 1893.885 472.965 1894.638 471.488 1895.391 C468.378 1896.969 465.252 1898.515 462.12 1900.048 C460.509 1900.842 458.903 1901.642 457.298 1902.448 C427.84 1917.224 397.272 1929.34 366.355 1940.695 C365.356 1941.063 364.357 1941.43 363.327 1941.809 C352.324 1945.842 341.279 1949.736 330.168 1953.461 C329.21 1953.783 328.251 1954.106 327.264 1954.438 C318.923 1957.206 310.484 1959.533 301.988 1961.773 C298.241 1962.765 294.527 1963.833 290.821 1964.969 C256.404 1975.493 220.369 1982.159 184.918 1988.133 C183.336 1988.409 181.754 1988.685 180.172 1988.961 C158.31 1992.686 136.08 1995.04 113.963 1996.537 C113.473 1996.571 113.473 1996.571 110.996 1996.738 C110.155 1996.791 109.313 1996.844 108.446 1996.899 C105.918 1997.133 105.918 1997.133 103.188 1997.615 C97.012 1998.593 90.75 1998.819 84.512 1999.18 C83.749 1999.224 82.985 1999.268 82.199 1999.314 C64.949 2000.292 47.721 2000.441 30.448 2000.394 C26.257 2000.382 22.067 2000.389 17.876 2000.4 C-11.853 2000.469 -41.51 1999.333 -71.082 1996.133 C-71.788 1996.057 -72.495 1995.982 -73.223 1995.904 C-119.135 1990.981 -164.688 1984.468 -209.423 1972.811 C-212.846 1971.938 -216.283 1971.14 -219.724 1970.347 C-278.12 1956.832 -334.726 1936.016 -389.13 1911.027 C-391.015 1910.163 -392.902 1909.305 -394.791 1908.449 C-416.899 1898.43 -438.397 1887.714 -459.45 1875.63 C-462.502 1873.894 -465.58 1872.209 -468.665 1870.531 C-491.602 1858.014 -513.489 1843.815 -535.082 1829.133 C-535.484 1828.861 -535.484 1828.861 -537.518 1827.485 C-553.437 1816.714 -568.928 1805.383 -584.136 1793.633 C-585.969 1792.22 -587.808 1790.813 -589.648 1789.41 C-600.505 1781.126 -610.993 1772.427 -621.386 1763.574 C-623.084 1762.131 -624.788 1760.694 -626.492 1759.258 C-633.469 1753.355 -640.233 1747.271 -646.885 1741.004 C-650.025 1738.045 -653.18 1735.129 -656.457 1732.32 C-660.127 1729.167 -663.486 1725.743 -666.883 1722.301 C-668.788 1720.422 -670.729 1718.673 -672.77 1716.945 C-681.16 1709.734 -689.041 1701.7 -696.18 1693.254 C-698.864 1690.261 -701.725 1687.459 -704.582 1684.633 C-708.665 1680.591 -712.631 1676.527 -716.352 1672.145 C-718.497 1669.65 -720.728 1667.241 -722.957 1664.82 C-727.125 1660.255 -731.061 1655.548 -734.941 1650.738 C-736.888 1648.369 -738.894 1646.088 -740.957 1643.82 C-744.726 1639.628 -748.202 1635.231 -751.659 1630.782 C-755.276 1626.135 -758.977 1621.564 -762.707 1617.008 C-768.01 1610.508 -773.135 1603.909 -778.082 1597.133 C-778.55 1596.492 -779.019 1595.851 -779.501 1595.19 C-791.669 1578.514 -803.654 1561.716 -814.717 1544.282 C-816.129 1542.059 -817.55 1539.842 -818.973 1537.625 C-826.072 1526.518 -832.862 1515.243 -839.497 1503.853 C-840.522 1502.094 -841.55 1500.336 -842.581 1498.581 C-851.326 1483.681 -859.297 1468.41 -867.123 1453.015 C-868.068 1451.16 -869.018 1449.307 -869.97 1447.455 C-893.23 1402.173 -911.532 1355.049 -927.541 1306.761 C-928.489 1303.901 -929.452 1301.047 -930.438 1298.2 C-933.837 1288.294 -936.535 1278.268 -939.145 1268.133 C-939.569 1266.497 -939.994 1264.862 -940.42 1263.227 C-941.048 1260.815 -941.674 1258.403 -942.298 1255.991 C-943.242 1252.343 -944.194 1248.699 -945.18 1245.062 C-947.331 1237.125 -949.264 1229.18 -950.957 1221.133 C-951.208 1219.947 -951.459 1218.761 -951.718 1217.54 C-955.849 1197.882 -959.757 1178.184 -962.79 1158.323 C-963.452 1153.989 -964.154 1149.691 -965.066 1145.402 C-966.472 1138.538 -967.252 1131.585 -968.082 1124.633 C-968.125 1124.274 -968.125 1124.274 -968.345 1122.461 C-969.897 1109.597 -971.033 1096.724 -971.848 1083.791 C-972.022 1081.821 -972.272 1079.858 -972.564 1077.903 C-973.443 1071.504 -973.752 1065.062 -974.125 1058.617 C-974.169 1057.855 -974.213 1057.093 -974.259 1056.308 C-975.267 1038.513 -975.44 1020.736 -975.4 1002.917 C-975.394 1000.332 -975.392 997.748 -975.389 995.163 C-975.349 967.725 -974.658 940.465 -972.082 913.133 C-971.997 912.207 -971.912 911.282 -971.825 910.329 C-966.588 853.269 -958.247 794.764 -941.211 739.871 C-940.191 736.493 -939.285 733.112 -938.418 729.692 C-917.107 645.727 -879.972 564.713 -737.472 352.761 C-736.017 351.056 -734.567 349.347 -733.117 347.637 C-727.048 340.494 -720.848 333.499 -714.471 326.63 C-713.061 325.11 -711.657 323.585 -710.254 322.059 C-681.767 291.078 -681.767 291.078 -673.457 284.008 C-669.278 280.433 -665.449 276.537 -661.582 272.633 C-657.205 268.218 -652.844 263.872 -648.09 259.859 C-645.952 258.021 -643.884 256.114 -641.818 254.196 C-636.586 249.339 -631.227 244.726 -625.664 240.246 C-623.244 238.265 -620.906 236.225 -618.582 234.133 C-597.531 215.243 -574.329 198.198 -551.082 182.133 C-550.424 181.676 -549.767 181.219 -549.089 180.749 C-544.437 177.518 -539.766 174.316 -535.082 171.133 C-534.401 170.669 -533.72 170.206 -533.019 169.729 C-495.842 144.488 -456.818 122.093 -416.479 102.313 C-414.725 101.449 -412.973 100.58 -411.224 99.707 C-356.931 72.644 -299.017 49.784 -240.082 35.133 C-238.354 34.694 -236.626 34.256 -234.898 33.816 C-230.72 32.76 -226.537 31.724 -222.352 30.694 C-220.249 30.174 -218.149 29.644 -216.051 29.109 C-199.921 25.011 -183.681 21.424 -167.395 18.008 C-166.257 17.766 -165.119 17.525 -163.947 17.276 C-147.986 13.965 -131.824 11.757 -115.693 9.453 C-113.017 9.07 -110.341 8.683 -107.666 8.295 C-98.469 6.973 -89.273 5.755 -80.032 4.782 C-76.891 4.451 -73.773 4.086 -70.651 3.609 C-66.383 3.039 -62.151 2.818 -57.852 2.633 C-56.98 2.592 -56.108 2.552 -55.21 2.51 C-52.438 2.381 -49.666 2.256 -46.895 2.133 C-44.14 2.009 -41.386 1.884 -38.632 1.756 C-36.926 1.677 -35.22 1.6 -33.513 1.525 C-29.109 1.322 -24.734 1.018 -20.344 0.61 C-13.558 0.028 -6.807 -0.011 0 0 Z M-94.938 26.85 C-97.163 27.144 -99.39 27.432 -101.616 27.719 C-142.796 33.067 -185.129 39.332 -224.895 51.695 C-229.478 53.083 -234.044 54.408 -238.707 55.508 C-291.733 68.516 -343.878 89.738 -393.082 113.133 C-393.715 113.433 -394.348 113.733 -395.001 114.042 C-422.746 127.196 -449.667 141.452 -476.082 157.133 C-477.829 158.163 -479.577 159.193 -481.324 160.223 C-504.654 174.033 -527.149 189.205 -549.082 205.133 C-549.804 205.655 -550.525 206.176 -551.269 206.714 C-560.525 213.417 -569.621 220.251 -578.443 227.519 C-582.445 230.816 -586.505 234.01 -590.645 237.133 C-596.785 241.816 -602.595 246.825 -608.398 251.918 C-611.214 254.387 -614.067 256.804 -616.947 259.198 C-623.301 264.487 -629.361 270.047 -635.351 275.744 C-638.407 278.646 -641.481 281.494 -644.686 284.23 C-649.757 288.655 -654.491 293.398 -659.242 298.16 C-660.2 299.118 -661.159 300.075 -662.117 301.032 C-664.113 303.027 -666.107 305.023 -668.1 307.02 C-670.633 309.56 -673.172 312.094 -675.711 314.628 C-677.687 316.6 -679.661 318.575 -681.633 320.55 C-683.016 321.934 -684.401 323.316 -685.786 324.697 C-690.222 329.15 -694.531 333.653 -698.618 338.431 C-700.943 341.134 -703.394 343.719 -705.832 346.32 C-710.821 351.686 -715.599 357.196 -720.297 362.816 C-722.205 365.099 -724.136 367.359 -726.086 369.605 C-731.345 375.665 -736.456 381.781 -741.3 388.179 C-743.937 391.66 -746.638 395.077 -749.391 398.467 C-756.005 406.62 -762.196 415.037 -768.274 423.594 C-769.618 425.482 -770.97 427.364 -772.326 429.243 C-778.709 438.101 -784.85 447.104 -790.895 456.195 C-791.374 456.916 -791.854 457.636 -792.348 458.379 C-800.175 470.147 -807.84 481.992 -815.082 494.133 C-815.638 495.063 -816.193 495.993 -816.766 496.951 C-825.602 511.8 -833.988 526.868 -842.082 542.133 C-842.639 543.177 -843.195 544.222 -843.769 545.298 C-868.162 591.198 -888.225 639.05 -905.082 688.195 C-905.35 688.974 -905.618 689.753 -905.894 690.556 C-909.587 701.334 -912.947 712.18 -916.082 723.133 C-916.395 724.213 -916.708 725.293 -917.031 726.406 C-921.299 741.181 -925.167 756.02 -928.596 771.011 C-928.943 772.525 -929.29 774.038 -929.638 775.552 C-948.194 856.317 -956.164 937.331 -955.116 1020.201 C-955.086 1022.827 -955.065 1025.452 -955.051 1028.078 C-954.772 1077.316 -949.652 1127.633 -939.728 1175.875 C-939.043 1179.328 -938.425 1182.787 -937.82 1186.254 C-932.473 1216.65 -925.52 1247.019 -915.948 1276.377 C-915.064 1279.192 -914.24 1282.021 -913.423 1284.856 C-910.387 1295.368 -906.947 1305.723 -903.395 1316.07 C-903.088 1316.965 -902.782 1317.859 -902.467 1318.78 C-897.35 1333.705 -891.996 1348.502 -886.082 1363.133 C-885.887 1363.618 -885.887 1363.618 -884.898 1366.072 C-867.495 1409.057 -847.39 1451.036 -824.082 1491.133 C-823.43 1492.255 -822.778 1493.377 -822.107 1494.534 C-810.571 1514.332 -798.123 1533.443 -785.257 1552.398 C-783.581 1554.873 -781.918 1557.356 -780.254 1559.84 C-773.704 1569.575 -766.789 1578.964 -759.574 1588.216 C-757.763 1590.543 -755.97 1592.883 -754.179 1595.225 C-752.155 1597.867 -750.118 1600.5 -748.082 1603.133 C-747.652 1603.69 -747.222 1604.248 -746.779 1604.822 C-741.177 1612.077 -735.427 1619.161 -729.425 1626.089 C-726.389 1629.594 -723.428 1633.145 -720.52 1636.758 C-716.485 1641.729 -712.217 1646.431 -707.855 1651.113 C-705.8 1653.329 -703.805 1655.588 -701.825 1657.871 C-690.229 1671.14 -677.77 1683.605 -665.3 1696.045 C-662.62 1698.72 -659.946 1701.4 -657.271 1704.08 C-655.543 1705.808 -653.815 1707.535 -652.086 1709.262 C-651.693 1709.656 -651.693 1709.656 -649.702 1711.652 C-645.534 1715.802 -641.29 1719.798 -636.825 1723.628 C-634.111 1725.971 -631.51 1728.432 -628.895 1730.883 C-622.987 1736.374 -616.895 1741.608 -610.703 1746.774 C-609.082 1748.133 -607.473 1749.503 -605.867 1750.879 C-599.26 1756.531 -592.53 1761.985 -585.668 1767.324 C-583.257 1769.203 -580.868 1771.107 -578.496 1773.035 C-569.766 1780.127 -560.796 1786.808 -551.626 1793.321 C-549.721 1794.678 -547.821 1796.042 -545.923 1797.41 C-537.529 1803.455 -529.012 1809.288 -520.395 1815.008 C-520.069 1815.225 -520.069 1815.225 -518.419 1816.322 C-445.674 1864.669 -367.424 1902.532 -257.684 1939.16 C-254.464 1940.03 -251.352 1941.028 -248.207 1942.133 C-240.455 1944.796 -232.475 1946.609 -224.517 1948.539 C-221.054 1949.383 -217.6 1950.259 -214.145 1951.133 C-159.19 1964.871 -103.623 1974.249 -47.082 1978.133 C-46.352 1978.184 -45.622 1978.235 -44.869 1978.288 C-4.954 1981.058 35.263 1981.061 75.229 1979.295 C77.665 1979.188 80.1 1979.09 82.536 1979.002 C129.031 1977.28 175.342 1970.18 220.918 1961.133 C221.661 1960.987 222.404 1960.84 223.169 1960.689 C249.411 1955.516 275.449 1949.129 300.949 1941.048 C303.873 1940.147 306.808 1939.29 309.748 1938.441 C319.898 1935.502 329.919 1932.237 339.918 1928.82 C340.792 1928.522 341.666 1928.223 342.567 1927.916 C403.37 1907.076 462.342 1880.454 517.918 1848.133 C518.395 1847.857 518.395 1847.857 520.811 1846.461 C548.48 1830.408 575.217 1812.358 601.105 1793.57 C601.855 1793.027 602.605 1792.484 603.378 1791.924 C609.99 1787.116 616.479 1782.17 622.918 1777.133 C624.069 1776.241 625.22 1775.349 626.371 1774.457 C632.803 1769.458 639.109 1764.344 645.3 1759.049 C648.496 1756.319 651.738 1753.667 655.043 1751.07 C659.601 1747.462 663.857 1743.577 668.129 1739.637 C670.843 1737.2 673.631 1734.909 676.48 1732.633 C681.081 1728.924 685.242 1724.946 689.336 1720.688 C691.335 1718.71 693.338 1716.894 695.472 1715.073 C700.406 1710.771 705.019 1706.175 709.641 1701.543 C710.093 1701.091 710.093 1701.091 712.381 1698.806 C714.282 1696.905 716.183 1695.003 718.081 1693.1 C720.494 1690.682 722.911 1688.268 725.329 1685.856 C727.665 1683.525 729.996 1681.19 732.328 1678.855 C733.186 1678 734.043 1677.145 734.927 1676.263 C739.254 1671.919 743.443 1667.515 747.432 1662.857 C749.805 1660.104 752.306 1657.471 754.793 1654.82 C759.328 1649.95 763.605 1644.936 767.773 1639.746 C769.917 1637.134 772.142 1634.629 774.418 1632.133 C782.547 1623.188 789.942 1613.631 797.373 1604.107 C799.012 1602.012 800.66 1599.924 802.309 1597.836 C809.662 1588.492 816.685 1578.983 823.463 1569.215 C824.896 1567.165 826.346 1565.129 827.805 1563.098 C851.697 1529.76 872.716 1494.346 891.918 1458.133 C892.475 1457.088 893.031 1456.044 893.604 1454.967 C924.146 1397.499 950.616 1335.344 967.077 1272.293 C967.915 1269.145 968.785 1266.007 969.664 1262.87 C976.511 1238.418 982.638 1213.839 987.355 1188.883 C987.517 1188.033 987.678 1187.183 987.844 1186.307 C989.89 1175.45 991.651 1164.566 993.25 1153.634 C993.784 1149.998 994.365 1146.373 994.984 1142.75 C999.168 1118.046 1001.286 1093.114 1002.918 1068.133 C1002.971 1067.333 1003.025 1066.533 1003.079 1065.708 C1004.626 1042.31 1005.1 1018.956 1005.105 995.508 C1005.106 994.889 1005.106 994.889 1005.108 991.757 C1005.106 969.413 1004.423 947.155 1002.605 924.883 C1002.574 924.486 1002.574 924.486 1002.412 922.481 C997.427 860.89 987.878 799.029 970.638 739.617 C970.127 737.853 969.62 736.087 969.116 734.32 C945.908 653.06 912.762 574.526 869.54 501.866 C868.017 499.299 866.51 496.723 865.008 494.145 C857.241 480.897 848.75 468.147 840.149 455.432 C838.044 452.319 835.947 449.201 833.852 446.082 C826.911 435.788 819.773 425.702 812.223 415.847 C810.281 413.296 808.385 410.711 806.48 408.133 C801.313 401.236 795.838 394.593 790.379 387.926 C788.497 385.616 786.643 383.282 784.793 380.945 C780.434 375.483 775.912 370.16 771.375 364.845 C769.925 363.141 768.481 361.43 767.039 359.719 C761.175 352.787 755.144 346.051 748.901 339.458 C746.143 336.54 743.445 333.597 740.837 330.545 C736.406 325.47 731.658 320.73 726.891 315.973 C725.933 315.015 724.976 314.056 724.019 313.098 C722.024 311.102 720.028 309.108 718.031 307.115 C715.491 304.581 712.956 302.043 710.423 299.504 C708.451 297.528 706.476 295.554 704.5 293.581 C703.117 292.199 701.735 290.814 700.353 289.429 C695.903 284.995 691.402 280.688 686.627 276.604 C683.877 274.237 681.251 271.74 678.605 269.258 C673.732 264.719 668.715 260.439 663.52 256.27 C660.968 254.174 658.535 251.993 656.105 249.758 C651.731 245.776 647.173 242.115 642.501 238.494 C638.685 235.532 634.926 232.513 631.198 229.44 C617.007 217.757 602.047 207.103 586.984 196.579 C585.526 195.559 584.071 194.534 582.617 193.507 C516.223 146.698 442.909 109.561 303.632 59.941 C301.087 59.183 298.552 58.399 296.02 57.602 C261.386 46.772 225.317 39.038 189.47 33.533 C186.805 33.115 184.147 32.665 181.488 32.211 C155.695 27.907 129.805 24.789 103.73 22.82 C102.67 22.739 101.61 22.658 100.518 22.575 C75.433 20.686 50.384 19.896 25.23 19.883 C23.924 19.882 22.617 19.881 21.271 19.88 C-17.576 19.883 -56.407 21.768 -94.938 26.85 Z " fill="#FBD13B" transform="translate(975.08203125,-0.1328125)"/>
<path d="M0 0 C33.949 -0.041 67.898 -0.082 102.875 -0.125 C113.57 -0.143 124.265 -0.161 135.285 -0.18 C148.406 -0.189 148.406 -0.189 154.561 -0.191 C158.834 -0.193 163.106 -0.2 167.379 -0.211 C172.848 -0.225 178.318 -0.229 183.787 -0.226 C185.782 -0.227 187.777 -0.231 189.773 -0.238 C240.413 -0.427 292.143 12.605 329 49 C356.214 76.174 366.978 111.892 367.312 149.562 C367.284 160.047 366.469 169.824 364 180 C363.828 180.757 363.657 181.514 363.48 182.293 C355.608 216.84 335.382 247.084 305.25 266.125 C262.174 292.562 215.474 296.381 166.125 296.125 C154.864 296.084 143.602 296.043 132 296 C132 327.68 132 359.36 132 392 C88.44 392 44.88 392 0 392 C0 262.64 0 133.28 0 0 Z " fill="#FED33A" transform="translate(598,808)"/>
<path d="M0 0 C33.763 -0.041 67.526 -0.082 102.312 -0.125 C112.946 -0.143 123.58 -0.161 134.536 -0.18 C147.59 -0.189 147.59 -0.189 153.715 -0.191 C157.963 -0.193 162.211 -0.2 166.46 -0.211 C171.9 -0.225 177.34 -0.229 182.781 -0.226 C184.764 -0.227 186.747 -0.231 188.731 -0.238 C231.09 -0.397 277.64 7.511 312 34 C312.888 34.67 313.776 35.341 314.691 36.031 C343.961 59.014 361.381 90.53 366.315 127.348 C370.594 164.941 363.215 204.98 339.363 235.176 C327.622 249.207 315.055 260.988 299 270 C297.886 270.655 296.772 271.31 295.625 271.984 C274.211 284.277 249.333 290.73 225 294 C224.363 294.09 223.727 294.179 223.07 294.272 C214.036 295.362 204.95 295.125 195.867 295.098 C194.229 295.096 192.591 295.095 190.953 295.095 C184.927 295.089 178.901 295.075 172.875 295.062 C159.386 295.042 145.898 295.021 132 295 C132 327.01 132 359.02 132 392 C88.44 392 44.88 392 0 392 C0 262.64 0 133.28 0 0 Z " fill="#FEFEFE" transform="translate(193,808)"/>
<path d="M0 0 C43.89 0 87.78 0 133 0 C133 95.37 133 190.74 133 289 C191.41 289 249.82 289 310 289 C310 322.99 310 356.98 310 392 C207.7 392 105.4 392 0 392 C0 262.64 0 133.28 0 0 Z " fill="#FDD23A" transform="translate(1002,808)"/>
<path d="M0 0 C4.383 -0.021 4.383 -0.021 26.562 -0.125 C29.297 -0.143 32.032 -0.161 34.85 -0.18 C76.72 -0.347 76.72 -0.347 91.102 13.82 C99.895 23.916 102.653 35.963 102.215 49.203 C101.343 60.547 97.401 71.973 89 80 C74.553 90.679 59.247 92.357 41.602 92.195 C41.068 92.194 41.068 92.194 38.368 92.189 C34.454 92.179 30.539 92.151 26.625 92.125 C17.839 92.084 9.053 92.043 0 92 C0 61.64 0 31.28 0 0 Z " fill="#14253E" transform="translate(325,910)"/>
<path d="M0 0 C4.383 -0.021 4.383 -0.021 26.562 -0.125 C29.297 -0.143 32.032 -0.161 34.85 -0.18 C76.442 -0.346 76.442 -0.346 90.391 13.215 C99.909 23.773 102.64 35.814 102.312 49.668 C101.648 62.235 95.987 72.834 86.988 81.434 C74.175 91.528 57.227 92.339 41.602 92.195 C41.068 92.194 41.068 92.194 38.368 92.189 C34.454 92.179 30.539 92.151 26.625 92.125 C17.839 92.084 9.053 92.043 0 92 C0 61.64 0 31.28 0 0 Z " fill="#111E33" transform="translate(730,910)"/>
</svg>
